<svg width="15" height="14" viewBox="0 0 15 14" fill="none" xmlns="http://www.w3.org/2000/svg">
<path d="M13.5 3.00001H10.8333V2.33334C10.8327 1.80309 10.6218 1.29472 10.2469 0.919769C9.87194 0.544822 9.36357 0.333922 8.83331 0.333344H6.16665C5.63639 0.333922 5.12802 0.544822 4.75307 0.919769C4.37812 1.29472 4.16722 1.80309 4.16665 2.33334V3.00001H1.49998C1.32317 3.00001 1.1536 3.07025 1.02858 3.19527C0.903551 3.3203 0.833313 3.48987 0.833313 3.66668C0.833313 3.84349 0.903551 4.01306 1.02858 4.13808C1.1536 4.26311 1.32317 4.33334 1.49998 4.33334H2.16665V10.3333C2.16769 11.2171 2.51921 12.0643 3.1441 12.6892C3.769 13.3141 4.61624 13.6656 5.49998 13.6667H9.49998C10.3837 13.6656 11.231 13.3141 11.8559 12.6892C12.4808 12.0643 12.8323 11.2171 12.8333 10.3333V4.33334H13.5C13.6768 4.33334 13.8464 4.26311 13.9714 4.13808C14.0964 4.01306 14.1666 3.84349 14.1666 3.66668C14.1666 3.48987 14.0964 3.3203 13.9714 3.19527C13.8464 3.07025 13.6768 3.00001 13.5 3.00001ZM5.49998 2.33334C5.5001 2.15657 5.57037 1.98707 5.69537 1.86207C5.82037 1.73707 5.98987 1.6668 6.16665 1.66668H8.83331C9.01009 1.6668 9.17959 1.73707 9.30458 1.86207C9.42958 1.98707 9.49986 2.15657 9.49998 2.33334V3.00001H5.49998V2.33334ZM11.5 10.3333C11.4994 10.8636 11.2885 11.372 10.9136 11.7469C10.5386 12.1219 10.0302 12.3328 9.49998 12.3333H5.49998C4.96972 12.3328 4.46135 12.1219 4.08641 11.7469C3.71146 11.372 3.50056 10.8636 3.49998 10.3333V4.33334H11.5V10.3333ZM6.16665 11C6.25421 11.0001 6.34092 10.9828 6.42183 10.9494C6.50273 10.9159 6.57625 10.8668 6.63816 10.8049C6.70008 10.7429 6.74918 10.6694 6.78267 10.5885C6.81615 10.5076 6.83336 10.4209 6.83331 10.3333V6.33334C6.83331 6.15653 6.76308 5.98696 6.63805 5.86194C6.51303 5.73691 6.34346 5.66668 6.16665 5.66668C5.98983 5.66668 5.82027 5.73691 5.69524 5.86194C5.57022 5.98696 5.49998 6.15653 5.49998 6.33334V10.3333C5.49993 10.4209 5.51714 10.5076 5.55062 10.5885C5.58411 10.6694 5.63321 10.7429 5.69513 10.8049C5.75704 10.8668 5.83056 10.9159 5.91146 10.9494C5.99237 10.9829 6.07908 11.0001 6.16665 11V11ZM8.83331 11C8.92087 11.0001 9.00759 10.9828 9.08849 10.9494C9.1694 10.9159 9.24291 10.8668 9.30483 10.8049C9.36674 10.7429 9.41585 10.6694 9.44933 10.5885C9.48282 10.5076 9.50003 10.4209 9.49998 10.3333V6.33334C9.49998 6.15653 9.42974 5.98696 9.30472 5.86194C9.17969 5.73691 9.01012 5.66668 8.83331 5.66668C8.6565 5.66668 8.48693 5.73691 8.36191 5.86194C8.23688 5.98696 8.16665 6.15653 8.16665 6.33334V10.3333C8.1666 10.4209 8.1838 10.5076 8.21729 10.5885C8.25077 10.6694 8.29988 10.7429 8.36179 10.8049C8.42371 10.8668 8.49722 10.9159 8.57813 10.9494C8.65904 10.9829 8.74575 11.0001 8.83331 11V11Z" fill="white"/>
</svg>
