<svg width="15" height="14" viewBox="0 0 15 14" fill="none" xmlns="http://www.w3.org/2000/svg">
<path d="M13.5 6.33334H8.16665V1.00001C8.16665 0.823199 8.09641 0.65363 7.97138 0.528606C7.84636 0.403581 7.67679 0.333344 7.49998 0.333344C7.32317 0.333344 7.1536 0.403581 7.02858 0.528606C6.90355 0.65363 6.83331 0.823199 6.83331 1.00001V6.33334H1.49998C1.32317 6.33334 1.1536 6.40358 1.02858 6.52861C0.903551 6.65363 0.833313 6.8232 0.833313 7.00001C0.833313 7.17682 0.903551 7.34639 1.02858 7.47141C1.1536 7.59644 1.32317 7.66668 1.49998 7.66668H6.83331V13C6.83331 13.1768 6.90355 13.3464 7.02858 13.4714C7.1536 13.5964 7.32317 13.6667 7.49998 13.6667C7.67679 13.6667 7.84636 13.5964 7.97138 13.4714C8.09641 13.3464 8.16665 13.1768 8.16665 13V7.66668H13.5C13.6768 7.66668 13.8464 7.59644 13.9714 7.47141C14.0964 7.34639 14.1666 7.17682 14.1666 7.00001C14.1666 6.8232 14.0964 6.65363 13.9714 6.52861C13.8464 6.40358 13.6768 6.33334 13.5 6.33334V6.33334Z" fill="white"/>
</svg>
